<?xml version="1.0" encoding="UTF-8" standalone="no"?>
<svg
   xmlns:dc="http://purl.org/dc/elements/1.1/"
   xmlns:cc="http://creativecommons.org/ns#"
   xmlns:rdf="http://www.w3.org/1999/02/22-rdf-syntax-ns#"
   xmlns:svg="http://www.w3.org/2000/svg"
   xmlns="http://www.w3.org/2000/svg"
   xmlns:sodipodi="http://sodipodi.sourceforge.net/DTD/sodipodi-0.dtd"
   xmlns:inkscape="http://www.inkscape.org/namespaces/inkscape"
   version="1.1"
   viewBox="0 -205 1928 543.5946"
   id="svg6"
   sodipodi:docname="sauron.svg"
   width="1928"
   height="543.5946"
   inkscape:version="0.92.5 (2060ec1f9f, 2020-04-08)">
  <metadata
     id="metadata12">
    <rdf:RDF>
      <cc:Work
         rdf:about="">
        <dc:format>image/svg+xml</dc:format>
        <dc:type
           rdf:resource="http://purl.org/dc/dcmitype/StillImage" />
        <dc:title></dc:title>
      </cc:Work>
    </rdf:RDF>
  </metadata>
  <defs
     id="defs10" />
  <sodipodi:namedview
     pagecolor="#ffffff"
     bordercolor="#666666"
     borderopacity="1"
     objecttolerance="10"
     gridtolerance="10"
     guidetolerance="10"
     inkscape:pageopacity="0"
     inkscape:pageshadow="2"
     inkscape:window-width="640"
     inkscape:window-height="480"
     id="namedview8"
     showgrid="false"
     fit-margin-top="50"
     fit-margin-left="50"
     fit-margin-right="50"
     fit-margin-bottom="50"
     inkscape:zoom="0.61425781"
     inkscape:cx="513.94515"
     inkscape:cy="477.54054"
     inkscape:current-layer="svg6" />
  <g
     transform="matrix(1,0,0,-1,-13,373.05405)"
     id="g4">
    <path
       d="m 908,402 35,13 q -43,0 -78.5,-4 -35.5,-4 -49.5,-8 l -13,-4 q -40,-12 -81,-35 -41,-23 -57,-41 -2,-2 6.5,-14.5 Q 679,296 694,281 q 15,-15 27,-23 2,-1 15.5,-10 13.5,-9 20,-13.5 6.5,-4.5 21.5,-12.5 15,-8 26.5,-12.5 11.5,-4.5 27,-9 15.5,-4.5 29.5,-5.5 59,-8 93,-9 z m 239,-28 q -4,6 -11.5,10 -7.5,4 -12.5,5 h -5 q -19,1 -118,-25 L 975,185 q 48,2 92.5,13 44.5,11 65.5,20 l 19,9 q 46,24 90.5,57 44.5,33 52.5,45 l 9,10 -68,49 70,-20 q 44,-15 250,-128 l 13,13 q -39,24 -86.5,48.5 Q 1435,326 1407,338 l -28,13 q -66,34 -141,59 -75,25 -112,31 -10,1 -48.5,8 -38.5,7 -57,9 -18.5,2 -51,5 -32.5,3 -60.5,2.5 -28,-0.5 -56,-3.5 -7,-1 -39,-4.5 Q 782,454 771.5,452 761,450 732,445 703,440 685,434.5 667,429 638,420.5 609,412 579.5,400 550,388 516,373 443,339 386.5,303.5 330,268 308.5,249.5 287,231 284,224 q -8,-24 6,-29 14,-5 27,-11 -19,2 -35.5,6.5 Q 265,195 258,197 l -7,3 q -48,23 -94,58 -17,15 -66,50 l -17,-3 q 2,4 2,9 0,5 -2,10 l -1,3 q -6,13 -10,23 l 51,-23 126,98 q 20,16 53,36.5 33,20.5 39,22.5 5,3 61,-5 -6,-8 -8,-16.5 -2,-8.5 -1,-13.5 l 1,-5 q 6,-16 14,-33 -11,0 -19,1.5 -8,1.5 -11,3.5 l -2,1 q -9,7 -25,29 Q 293,414 264.5,394 236,374 231,369 l -3,-4 q -2,-8 19.5,-25.5 Q 269,322 282,321 q 8,-1 39.5,15 31.5,16 73.5,39.5 42,23.5 56,30.5 117,58 173,74 43,14 119.5,31.5 Q 820,529 868,528 q 165,0 296,-31 95,-24 150.5,-39.5 Q 1370,442 1478,401.5 1586,361 1699,306 l 43,24 q -18,23 -33.5,38.5 l -20.5,20.5 -7,4 q -5,3 -11,8 -6,4 -10,2 l -1,-1 q -9,-4 -36,-25 l -2,22 q 13,15 26,26.5 13,11.5 20,14.5 l 6,4 q 17,8 24,9.5 7,1.5 17,-3.5 5,-2 56,-46.5 51,-44.5 58,-45.5 17,-4 26,0 10,3 21,6 l 16,-16 -7,-8 q 0,3 -3,4 -3,1 -5,0 h -3 q -7,-1 -65.5,-28 -58.5,-27 -87.5,-42 -77,-38 -110,-62 l -68,-50 -37,6 -1,8 29,20 q 9,13 9,18 0,15 -82,60 -44,24 -76,32 -27,8 -44,-6 -3,-2 -42.5,-37.5 Q 1258,227 1246,216 1227,199 1176.5,166 1126,133 1093,121 959,69 856,91 q -120,26 -183,61 -40,23 -93,72 -14,15 -44,60 l -56,16 q 15,13 31.5,25 16.5,12 25.5,17 l 9,5 q 57,31 150,59 129,36 185,38 119,5 161,-4 82,-19 94,-33 11,-16 11,-33 z"
       id="path2"
       inkscape:connector-curvature="0"
       style="fill:currentColor" />
  </g>
</svg>
